HIERARCHY
ROOT Hips
{
    OFFSET   0.000000   0.000000   0.000000
    CHANNELS 6 Xposition Yposition Zposition Zrotation Xrotation Yrotation
    JOINT Chest
    {
        OFFSET   0.000000   8.007230   0.000000
        CHANNELS 3 Zrotation Xrotation Yrotation
        JOINT Chest2
        {
            OFFSET   0.000000  22.077100   0.000000
            CHANNELS 3 Zrotation Xrotation Yrotation
            JOINT Neck
            {
                OFFSET   0.000000  23.255100   0.000000
                CHANNELS 3 Zrotation Xrotation Yrotation
                JOINT Head
                {
                    OFFSET   0.000000  14.370100   1.956600
                    CHANNELS 3 Zrotation Xrotation Yrotation
                    End Site
                    {
                        OFFSET   0.000000  19.566000   0.000000
                    }
                }
            }
            JOINT LeftCollar
            {
                OFFSET   3.911900  19.017000  -0.467063
                CHANNELS 3 Zrotation Xrotation Yrotation
                JOINT LeftShoulder
                {
                    OFFSET  10.383700   0.000000   0.000000
                    CHANNELS 3 Zrotation Xrotation Yrotation
                    JOINT LeftElbow
                    {
                        OFFSET  26.662100   0.001193   0.000980
                        CHANNELS 3 Zrotation Xrotation Yrotation
                        JOINT LeftWrist
                        {
                            OFFSET  28.869000  -0.000059  -0.000082
                            CHANNELS 3 Zrotation Xrotation Yrotation
                            JOINT LeftFinger0
                            {
                                OFFSET   2.044650  -2.323450   3.252850
                                CHANNELS 3 Zrotation Xrotation Yrotation
                                JOINT LeftFinger01
                                {
                                    OFFSET   3.088130   0.000000   0.000000
                                    CHANNELS 3 Zrotation Xrotation Yrotation
                                    JOINT LeftFinger02
                                    {
                                        OFFSET   2.639460   0.000000   0.000000
                                        CHANNELS 3 Zrotation Xrotation Yrotation
                                        End Site
                                        {
                                            OFFSET   2.582190   0.000000   0.000000
                                        }
                                    }
                                }
                            }
                            JOINT LeftFinger1
                            {
                                OFFSET   8.364480   0.000000   3.252850
                                CHANNELS 3 Zrotation Xrotation Yrotation
                                JOINT LeftFinger11
                                {
                                    OFFSET   4.646930   0.000000   0.000000
                                    CHANNELS 3 Zrotation Xrotation Yrotation
                                    JOINT LeftFinger12
                                    {
                                        OFFSET   2.323470   0.000000   0.000000
                                        CHANNELS 3 Zrotation Xrotation Yrotation
                                        End Site
                                        {
                                            OFFSET   2.273050   0.000000   0.000000
                                        }
                                    }
                                }
                            }
                            JOINT LeftFinger2
                            {
                                OFFSET   8.364490   0.000016   1.078090
                                CHANNELS 3 Zrotation Xrotation Yrotation
                                JOINT LeftFinger21
                                {
                                    OFFSET   5.111610   0.000000   0.000000
                                    CHANNELS 3 Zrotation Xrotation Yrotation
                                    JOINT LeftFinger22
                                    {
                                        OFFSET   2.788150   0.000016   0.000000
                                        CHANNELS 3 Zrotation Xrotation Yrotation
                                        End Site
                                        {
                                            OFFSET   2.727660   0.000000   0.000000
                                        }
                                    }
                                }
                            }
                            JOINT LeftFinger3
                            {
                                OFFSET   7.899780   0.000015  -1.078090
                                CHANNELS 3 Zrotation Xrotation Yrotation
                                JOINT LeftFinger31
                                {
                                    OFFSET   4.646930   0.000000   0.000000
                                    CHANNELS 3 Zrotation Xrotation Yrotation
                                    JOINT LeftFinger32
                                    {
                                        OFFSET   2.323470   0.000000   0.000000
                                        CHANNELS 3 Zrotation Xrotation Yrotation
                                        End Site
                                        {
                                            OFFSET   2.273050   0.000000   0.000000
                                        }
                                    }
                                }
                            }
                            JOINT LeftFinger4
                            {
                                OFFSET   7.435090   0.000000  -3.252850
                                CHANNELS 3 Zrotation Xrotation Yrotation
                                JOINT LeftFinger41
                                {
                                    OFFSET   3.717550   0.000000   0.000000
                                    CHANNELS 3 Zrotation Xrotation Yrotation
                                    JOINT LeftFinger42
                                    {
                                        OFFSET   1.858770   0.000000   0.000000
                                        CHANNELS 3 Zrotation Xrotation Yrotation
                                        End Site
                                        {
                                            OFFSET   1.818440   0.000000   0.000000
                                        }
                                    }
                                }
                            }
                        }
                    }
                }
            }
            JOINT RightCollar
            {
                OFFSET  -3.911910  19.017000  -0.467062
                CHANNELS 3 Zrotation Xrotation Yrotation
                JOINT RightShoulder
                {
                    OFFSET -10.383700   0.000014   0.000000
                    CHANNELS 3 Zrotation Xrotation Yrotation
                    JOINT RightElbow
                    {
                        OFFSET -26.662100   0.001225   0.001091
                        CHANNELS 3 Zrotation Xrotation Yrotation
                        JOINT RightWrist
                        {
                            OFFSET -28.869000  -0.000020  -0.000085
                            CHANNELS 3 Zrotation Xrotation Yrotation
                            JOINT RightFinger0
                            {
                                OFFSET  -2.044650  -2.323490   3.252850
                                CHANNELS 3 Zrotation Xrotation Yrotation
                                JOINT RightFinger01
                                {
                                    OFFSET  -3.088130   0.000000   0.000000
                                    CHANNELS 3 Zrotation Xrotation Yrotation
                                    JOINT RightFinger02
                                    {
                                        OFFSET  -2.639460   0.000000   0.000000
                                        CHANNELS 3 Zrotation Xrotation Yrotation
                                        End Site
                                        {
                                            OFFSET  -2.582190   0.000000   0.000000
                                        }
                                    }
                                }
                            }
                            JOINT RightFinger1
                            {
                                OFFSET  -8.364480   0.000000   3.252850
                                CHANNELS 3 Zrotation Xrotation Yrotation
                                JOINT RightFinger11
                                {
                                    OFFSET  -4.646930   0.000000   0.000000
                                    CHANNELS 3 Zrotation Xrotation Yrotation
                                    JOINT RightFinger12
                                    {
                                        OFFSET  -2.323470   0.000000   0.000000
                                        CHANNELS 3 Zrotation Xrotation Yrotation
                                        End Site
                                        {
                                            OFFSET  -2.273050   0.000000   0.000000
                                        }
                                    }
                                }
                            }
                            JOINT RightFinger2
                            {
                                OFFSET  -8.364480   0.000000   1.078090
                                CHANNELS 3 Zrotation Xrotation Yrotation
                                JOINT RightFinger21
                                {
                                    OFFSET  -5.111620   0.000000   0.000000
                                    CHANNELS 3 Zrotation Xrotation Yrotation
                                    JOINT RightFinger22
                                    {
                                        OFFSET  -2.788160   0.000000   0.000000
                                        CHANNELS 3 Zrotation Xrotation Yrotation
                                        End Site
                                        {
                                            OFFSET  -2.727660   0.000000   0.000000
                                        }
                                    }
                                }
                            }
                            JOINT RightFinger3
                            {
                                OFFSET  -7.899780   0.000000  -1.078090
                                CHANNELS 3 Zrotation Xrotation Yrotation
                                JOINT RightFinger31
                                {
                                    OFFSET  -4.646930   0.000000   0.000000
                                    CHANNELS 3 Zrotation Xrotation Yrotation
                                    JOINT RightFinger32
                                    {
                                        OFFSET  -2.323470   0.000000   0.000000
                                        CHANNELS 3 Zrotation Xrotation Yrotation
                                        End Site
                                        {
                                            OFFSET  -2.273050   0.000000   0.000000
                                        }
                                    }
                                }
                            }
                            JOINT RightFinger4
                            {
                                OFFSET  -7.435090   0.000000  -3.252850
                                CHANNELS 3 Zrotation Xrotation Yrotation
                                JOINT RightFinger41
                                {
                                    OFFSET  -3.717550   0.000000   0.000000
                                    CHANNELS 3 Zrotation Xrotation Yrotation
                                    JOINT RightFinger42
                                    {
                                        OFFSET  -1.858760   0.000000   0.000000
                                        CHANNELS 3 Zrotation Xrotation Yrotation
                                        End Site
                                        {
                                            OFFSET  -1.818440   0.000000   0.000000
                                        }
                                    }
                                }
                            }
                        }
                    }
                }
            }
        }
    }
    JOINT LeftHip
    {
        OFFSET   9.783030   0.000000   0.000000
        CHANNELS 3 Zrotation Xrotation Yrotation
        JOINT LeftKnee
        {
            OFFSET   0.000063 -41.789100   0.000608
            CHANNELS 3 Zrotation Xrotation Yrotation
            JOINT LeftAnkle
            {
                OFFSET   0.000048 -41.133200  -0.000184
                CHANNELS 3 Zrotation Xrotation Yrotation
                JOINT LeftToe
                {
                    OFFSET   0.000000  -6.358960  14.674500
                    CHANNELS 3 Zrotation Xrotation Yrotation
                    End Site
                    {
                        OFFSET   0.000000   0.000000   3.913200
                    }
                }
            }
        }
    }
    JOINT RightHip
    {
        OFFSET  -9.783030   0.000000   0.000000
        CHANNELS 3 Zrotation Xrotation Yrotation
        JOINT RightKnee
        {
            OFFSET   0.000071 -41.789100   0.001239
            CHANNELS 3 Zrotation Xrotation Yrotation
            JOINT RightAnkle
            {
                OFFSET   0.000037 -41.133200  -0.000166
                CHANNELS 3 Zrotation Xrotation Yrotation
                JOINT RightToe
                {
                    OFFSET   0.000000  -6.358960  14.674500
                    CHANNELS 3 Zrotation Xrotation Yrotation
                    End Site
                    {
                        OFFSET   0.000000   0.000000   3.913200
                    }
                }
            }
        }
    }
}
MOTION
Frames: 5
Frame Time:   0.016667
 -0.701402  89.518100   1.048070  -2.491550 -19.781400  -4.470220   4.214500  21.066100  -0.687983   9.843430  42.001200  -3.587470   7.448640  -4.450420   0.587125  12.432400  -8.568810 -25.751200  -1.451200  -8.743150   1.507830 -50.065900  37.798000 -26.157400  -6.357520 -14.278600 -34.218000  17.967400  -6.476420  -1.115740  36.679100  28.625800 -59.216100 -32.466200   0.067722   0.043158 -11.233100   0.036386  -0.042156 -36.468200   7.324710  -9.786960 -30.351300  -0.004840  -0.224719 -21.245700   0.104807  -0.132421 -29.887000   0.246043  -0.428056 -44.831600   0.068526  -0.216968 -29.857800   0.159943  -0.061167 -29.466200   0.242897  -0.429850 -44.200700  -0.009958  -0.043395 -29.437600   0.047902  -0.106775 -36.562100  -0.139333   0.188215 -54.843600  -0.003820   0.000436 -36.525800  -0.000624  -0.001251  14.590300  -8.540870  10.455200  42.973400  -0.096828  31.110500  -7.969620  -6.567440  12.930200 -70.557700  21.448200  18.783600 -40.748600  28.538900  63.929600  23.555900  -0.001512  -0.002037   6.777910   0.000000  -0.000492   0.871493   0.284828  18.050800   0.749912   0.001765  -0.003670   0.524935   0.002022   0.000261   5.890600   1.913010  17.920200   6.191970  -0.000187   0.000635   4.123840  -0.000459  -0.000592   5.072030   1.232240  13.601900   5.218670  -0.000638  -0.003536   3.475640  -0.000884  -0.002617  15.134600  -1.519310  -5.606030  22.813300  -0.001471  -0.001490  15.193600   0.000000  -0.002371   2.175270  21.288600   5.156170   2.013090   2.516090   6.316310  -4.018410  -3.512730   0.051254   0.000000   0.000000   0.000000   1.652110  20.732700  -3.702240  -0.023853   2.290270  -2.856940  -0.945586  -3.777400   2.097850  -0.000000   0.000000   0.000000
 -0.674638  89.517500   1.071850  -2.525690 -19.764800  -4.564060   4.211840  21.047200  -0.677099   9.830000  41.964500  -3.558820   7.345960  -4.539590   0.587587  12.270600  -8.753970 -23.703000  -1.468800  -8.747040   1.520810 -50.088600  37.769500 -26.155000  -6.326700 -14.230500 -34.201000  17.970100  -6.443820  -1.109330  36.707500  28.644000 -59.140300 -32.461600   0.074685   0.047555 -11.230800   0.040371  -0.040714 -36.432300   7.309660  -9.778980 -30.321900  -0.023546  -0.258608 -21.225000   0.103442  -0.165446 -29.862100   0.237542  -0.413615 -44.794400   0.066613  -0.279058 -29.832900   0.186423  -0.100258 -29.449400   0.234543  -0.415319 -44.175500  -0.027114  -0.065579 -29.420800   0.045634  -0.137502 -36.546600  -0.135531   0.183052 -54.820200  -0.000332   0.001204 -36.510300   0.001687  -0.001179  14.663900  -8.459880  10.450000  43.455700  -0.094680  30.872000  -7.846580  -6.685060  12.898400 -70.648100  21.424300  19.014800 -40.748600  28.518600  64.067900  23.455400  -0.001509  -0.002032   6.727690   0.000000  -0.000469   0.880712   0.290554  18.242700   0.759012   0.001798  -0.003631   0.531304   0.002029   0.000232   5.894620   1.938390  18.150500   6.201530  -0.000177   0.000618   4.130210  -0.000478  -0.000621   5.114660   1.270750  13.903700   5.269450  -0.000654  -0.003559   3.509450  -0.000901  -0.002633  15.247000  -1.476270  -5.406550  22.976200  -0.001548  -0.001508  15.302100   0.000000  -0.002372   2.160930  21.310300   5.173870   1.999220   2.501110   6.347780  -3.992750  -3.531830   0.099682   0.000000   0.000000   0.000000   1.632170  20.732000  -3.667160  -0.031503   2.280590  -2.841450  -0.921505  -3.774100   2.139270   0.000000   0.000000   0.000000
 -0.646268  89.516900   1.090370  -2.555120 -19.754000  -4.643770   4.204720  21.030400  -0.655680   9.800450  41.933400  -3.503810   7.252650  -4.633330   0.589039  12.124700  -8.946210 -21.595500  -1.484610  -8.754650   1.529700 -50.112900  37.742800 -26.149100  -6.298450 -14.195100 -34.179200  17.981500  -6.411230  -1.096350  36.728200  28.650400 -59.054200 -32.457000   0.075680   0.048184 -11.228600   0.040940  -0.034839 -36.407300   7.295160  -9.769660 -30.298800  -0.040137  -0.271309 -21.208700   0.093883  -0.181071 -29.842300   0.227924  -0.397164 -44.764500   0.055302  -0.312034 -29.812900   0.196198  -0.125000 -29.432700   0.225072  -0.398779 -44.150300  -0.060025  -0.100705 -29.404000   0.033289  -0.155423 -36.531000  -0.131730   0.177888 -54.796800   0.003761   0.001935 -36.494700   0.004001  -0.001158  14.729000  -8.387850  10.440500  43.932400  -0.078114  30.668600  -7.685080  -6.845450  12.817400 -70.738600  21.418500  19.242200 -40.770100  28.493900  64.171500  23.359800  -0.001501  -0.002026   6.679910   0.000000  -0.000451   0.892107   0.296995  18.396500   0.769220   0.001830  -0.003596   0.538448   0.002037   0.000201   5.893120   1.954440  18.286100   6.207760  -0.000167   0.000602   4.134360  -0.000496  -0.000643   5.129590   1.290890  14.080500   5.289020  -0.000669  -0.003579   3.522490  -0.000918  -0.002648  15.308600  -1.439580  -5.245420  23.062000  -0.001622  -0.001526  15.359300   0.000000  -0.002372   2.140640  21.326100   5.188750   1.988800   2.495600   6.369490  -3.964550  -3.553080   0.148133   0.000000   0.000000  -0.000000   1.610040  20.730600  -3.627280  -0.038688   2.273980  -2.827910  -0.897298  -3.770840   2.168730   0.000000   0.000000   0.000000
 -0.616920  89.516300   1.104060  -2.583040 -19.753400  -4.710330   4.194550  21.017100  -0.623135   9.759990  41.910100  -3.423410   7.171140  -4.728540   0.593845  11.995500  -9.139530 -19.478400  -1.493920  -8.761950   1.521180 -50.122400  37.724300 -26.140500  -6.282200 -14.177500 -34.162000  18.047600  -6.413590  -1.069790  36.703800  28.616200 -58.975000 -32.486900   0.047320   0.030155 -11.243600   0.025683  -0.018871 -36.427700   7.271070  -9.733090 -30.311200  -0.045955  -0.193086 -21.217600   0.047355  -0.137681 -29.856400   0.202205  -0.352180 -44.785400   0.024532  -0.232953 -29.826800   0.141493  -0.118379 -29.448400   0.199699  -0.353609 -44.173600  -0.105888  -0.130289 -29.419500  -0.002968  -0.144303 -36.555700  -0.137955   0.186088 -54.833900   0.008321   0.002710 -36.519400   0.006076  -0.001126  14.781000  -8.341080  10.398100  44.298300   0.114909  30.502700  -7.437300  -7.131300  12.701100 -70.855800  21.446400  19.520200 -40.796700  28.475400  64.207300  23.284800  -0.001488  -0.002026   6.642400   0.000000  -0.000434   0.963053   0.322987  18.474000   0.830473   0.001860  -0.003573   0.581329   0.002046   0.000177   5.917010   1.961730  18.261800   6.232060  -0.000161   0.000564   4.150540  -0.000508  -0.000644   4.967770   1.248920  14.070300   5.121810  -0.000681  -0.003588   3.411120  -0.000933  -0.002652  15.285500  -1.414730  -5.160690  23.023800  -0.001693  -0.001541  15.333800   0.000000  -0.002372   2.117510  21.345700   5.194240   1.984680   2.491110   6.384300  -3.932730  -3.573190   0.197704  -0.000000   0.000000  -0.000000   1.593670  20.729100  -3.612380  -0.046675   2.279210  -2.805400  -0.873936  -3.770960   2.192500   0.000000   0.000000   0.000000
 -0.587310  89.515800   1.113590  -2.604620 -19.760700  -4.748860   4.184060  21.007200  -0.588148   9.718260  41.894200  -3.338040   7.092880  -4.825210   0.599730  11.871800  -9.334940 -17.392500  -1.506300  -8.772840   1.512680 -50.127100  37.716400 -26.133300  -6.271200 -14.170300 -34.143100  18.113700  -6.429770  -1.032650  36.672400  28.571500 -58.917500 -32.522900   0.011960   0.007671 -11.261500   0.006957  -0.006687 -36.452700   7.251830  -9.697350 -30.329100  -0.046786  -0.081221 -21.230300  -0.001119  -0.073147 -29.877600   0.184215  -0.320625 -44.817300  -0.006652  -0.116423 -29.848200   0.061863  -0.102233 -29.471600   0.181946  -0.321930 -44.208500  -0.135996  -0.146931 -29.442800  -0.032713  -0.119794 -36.592200  -0.147169   0.198223 -54.888700   0.013298   0.003488 -36.555900   0.008351  -0.001102  14.822800  -8.302720  10.349800  44.582800   0.450036  30.369900  -7.159200  -7.458000  12.551700 -70.968900  21.498000  19.795800 -40.809500  28.456400  64.231200  23.222900  -0.001479  -0.002026   6.611430   0.000000  -0.000415   1.016570   0.341785  18.527900   0.877245   0.001891  -0.003551   0.614074   0.002054   0.000142   5.944800   1.965140  18.228500   6.260120  -0.000155   0.000520   4.169240  -0.000518  -0.000644   4.805940   1.206950  14.060200   4.954600  -0.000693  -0.003596   3.299760  -0.000950  -0.002656  15.261700  -1.392810  -5.093540  22.985600  -0.001761  -0.001557  15.308400   0.000000  -0.002370   2.094060  21.371500   5.195840   1.983380   2.487690   6.391520  -3.900310  -3.590890   0.240288   0.000000   0.000000   0.000000   1.579690  20.728200  -3.609110  -0.057461   2.295450  -2.791130  -0.848993  -3.772210   2.215630   0.000000   0.000000   0.000000
